<svg xmlns="http://www.w3.org/2000/svg" viewBox="0 0 1179.19 1159.68"><title>Mesa de trabajo 40</title><g id="Capa_4" data-name="Capa 4"><path d="M236.58,546l-.7.07c-6.54.6-39.21,13.78-63.69-17.59,0,0,15.92-64,40.16-66.36a34.32,34.32,0,0,1,19.24.47c10.46,3.33,35.41,7.61,45.15-5.7,0,0,15.45,19.25,24.95,21.39,0,0,15,.23,28.28-27.81,0,0,10.45,9.75,20.2,9.27s32.08-8.79,44.67-2.38,22.81,8.8,42.06,66.54c0,0-14.88,31.83-66.53,19l.21,86.06H236Z" fill="#cc4f92"/><path d="M277,456.65l-3.56,4.64s-4.28,8.91,8.2,33.32c0,0,12.12,20.68,28.34,18.54s19.78-15.33,19.78-15.33,5.7-15.15,6.24-18.71,2.49-21.57,2.49-21.57-2-3.56-2.32-2.67-5-5.17-5-5.17-14.79,26.2-27.44,28.69C303.78,478.39,291.66,477.5,277,456.65Z" fill="#f6e6f1"/><path d="M319.39,474.25c6.48-6.78,12.48-15.73,13.85-22.11L330.63,451s-14.73,24.95-25.9,26.73c0,0-7.72,3.45-22.69-15.68l-5-5.35-2.26,2.5s.52.72,1.43,1.9l.65,5.14-1.79,5.7c14.52,41,32.31,38.14,32.31,38.14-6.91-15.15,12-35.78,12-35.78Z" fill="#e9c1d9"/><rect x="964.96" y="784.35" width="8.67" height="258.5" stroke-width="3" fill="#fff" stroke="#222221" stroke-linejoin="bevel" transform="translate(1938.59 1827.19) rotate(-180)"/><rect x="945.87" y="784.35" width="7.48" height="215.12" stroke-width="3" fill="#fff" stroke="#222221" stroke-linejoin="bevel" transform="translate(1899.22 1783.81) rotate(-180)"/><rect x="778.87" y="788.35" width="8.67" height="258.5" fill="#fff" stroke="#222221" stroke-linejoin="bevel" stroke-width="3"/><rect x="799.15" y="788.35" width="7.48" height="215.12" fill="#fff" stroke="#222221" stroke-linejoin="bevel" stroke-width="3"/><path d="M990.22,762.4s-46,242.74-50.26,244.88-41.7-15-41.7-15L910,762.4Z" fill="#222221"/><path d="M1006.26,765.61s55.6,40.64,26.73,44.91-69.5-43.84-69.5-43.84Z" fill="#fff" stroke="#222221" stroke-linejoin="bevel" stroke-width="3"/><polygon points="879.96 765.38 880.08 806.25 859.76 805.18 859.52 765.38 879.96 765.38" fill="#fff" stroke="#222221" stroke-linejoin="bevel" stroke-width="3"/><path d="M859.76,797.69l-130.45,27.8s-27.81-46,18.18-63.09l112,3Z" fill="#222221"/><path d="M910,994.44l-8.1,26.74a10.6,10.6,0,0,0,5.39,12.55h0a10.6,10.6,0,0,0,14.88-6.43l9.22-30.72Z" fill="#fff" stroke="#222221" stroke-linejoin="bevel" stroke-width="3"/><path d="M926.53,1030.56s3.81,8.56-3.32,10-13.78,1.9-11.41,5.71,37.07,85.54,16.64,76-41.35-67.49-40.4-73.19,10.45-27.57,10.45-27.57S904.67,1041.49,926.53,1030.56Z" fill="#fff" stroke="#222221" stroke-linejoin="bevel" stroke-width="3"/><polygon points="930.34 766.68 880.08 789.14 879.01 765.61 930.34 766.68" fill="#fff" stroke="#222221" stroke-linejoin="bevel" stroke-width="3"/><polygon points="963.49 788.2 918.64 788.2 902.3 982.24 927.84 987.94 963.49 788.2" fill="#353535"/><path d="M837.09,789.14H731.59s-6.39,17.73,5,27.71L840.88,794Z" fill="#353535"/><path d="M1026.83,789.14H996.06S1051.9,822,1026.83,789.14Z" fill="#f6e6f1"/><path d="M873.49,789.14c-.52.38-9.07,0-9.07,0V803l9.07-2.06Z" fill="#f6e6f1"/><polygon points="804.18 813.41 802.04 813.41 801.21 849.52 804.18 850.36 804.18 813.41" fill="#f6e6f1"/><polygon points="784.58 815.78 781.84 815.78 781.84 856.65 784.58 859.15 784.58 815.78" fill="#f6e6f1"/><polygon points="923.35 1007.46 916.43 1001.96 909.09 1024.3 916.22 1027.15 923.35 1007.46" fill="#f6e6f1"/><path d="M898.26,1034.85c-2,1.33-3.9,18.44-3.9,18.44s30.89,63.21,29,56.55-2.38-26.5-10-37.25-11.07-29.75-11.07-29.75Z" fill="#f6e6f1"/><rect x="215.93" y="770.51" width="8.67" height="258.5" fill="#fff" stroke="#222221" stroke-linejoin="bevel" stroke-width="3"/><rect x="236.21" y="770.51" width="7.48" height="215.12" fill="#fff" stroke="#222221" stroke-linejoin="bevel" stroke-width="3"/><rect x="402.01" y="774.51" width="8.67" height="258.5" stroke-width="3" fill="#fff" stroke="#222221" stroke-linejoin="bevel" transform="translate(812.7 1807.52) rotate(-180)"/><rect x="382.93" y="774.51" width="7.48" height="215.12" stroke-width="3" fill="#fff" stroke="#222221" stroke-linejoin="bevel" transform="translate(773.33 1764.15) rotate(-180)"/><path d="M199.34,748.57s46,242.73,50.26,244.87,41.7-15,41.7-15l-11.76-229.9Z" fill="#222221"/><path d="M183.3,751.78s-55.6,40.63-26.73,44.91,69.5-43.84,69.5-43.84Z" fill="#fff" stroke="#222221" stroke-linejoin="bevel" stroke-width="3"/><polygon points="309.6 751.54 309.48 792.41 329.8 791.35 330.04 751.54 309.6 751.54" fill="#fff" stroke="#222221" stroke-linejoin="bevel" stroke-width="3"/><path d="M329.8,783.86l130.45,27.8s27.8-46-18.18-63.09l-112,3Z" fill="#222221"/><path d="M279.54,980.61l8.1,26.74a10.58,10.58,0,0,1-5.39,12.54h0a10.59,10.59,0,0,1-14.88-6.42l-9.22-30.72Z" fill="#fff" stroke="#222221" stroke-linejoin="bevel" stroke-width="3"/><path d="M263,1016.73s-3.81,8.56,3.32,10,13.78,1.9,11.41,5.7-37.07,85.55-16.64,76,41.35-67.48,40.4-73.18-10.46-27.57-10.46-27.57S284.89,1027.66,263,1016.73Z" fill="#fff" stroke="#222221" stroke-linejoin="bevel" stroke-width="3"/><rect x="1038.32" y="758.46" width="5.17" height="314.67" fill="#222221"/><rect x="1093.77" y="753.84" width="10.33" height="381.58" fill="#222221"/><polygon points="1138.28 748.57 29.08 748.57 64.12 630.52 1095.12 630.52 1138.28 748.57" fill="#fff" stroke="#222221" stroke-linejoin="bevel" stroke-width="3"/><polygon points="259.22 752.85 309.48 775.3 310.55 751.78 259.22 752.85" fill="#fff" stroke="#222221" stroke-linejoin="bevel" stroke-width="3"/><rect x="38.36" y="747.76" width="10.33" height="381.58" fill="#222221"/><rect x="90.04" y="748.62" width="5.17" height="314.67" fill="#222221"/><path d="M257.26,407.29s3.21,32.07,22.28,51.68c0,0,12.3,17.64,24.24,19.42,0,0,11.58-4.81,17.11-13.36s12.83-20.5,12.83-20.5,7.66-17.82,8.91-23.34S346,405.32,346,405.32s-46.28-55.6-51.63-47.58S253.88,395.34,257.26,407.29Z" fill="#f6e6f1"/><path d="M290.83,363.5S293,412,343.1,418.39L346,405.32S296.77,356.85,290.83,363.5Z" fill="#e9c1d9"/><path d="M345.26,404c0,29.52-28.21,74.08-41.49,74.08-15.76,0-46.46-43.08-46.46-72.6s17-51.83,44.8-51.83S345.26,374.45,345.26,404Z" fill="none" stroke="#222221" stroke-linejoin="bevel" stroke-width="3"/><path d="M304.52,410.84s-15.77-10.79-27.38.83" fill="none" stroke="#222221" stroke-linejoin="bevel" stroke-width="3"/><path d="M341.18,408.94c-14.11-6.64-19.91,2.49-19.91,2.49" fill="none" stroke="#222221" stroke-linejoin="bevel" stroke-width="3"/><path d="M272.05,461.46C270.26,465,281,515,309.62,513.24s28.91-56.77,28.91-56.77" fill="none" stroke="#222221" stroke-linejoin="bevel" stroke-width="3"/><line x1="235.93" y1="493.11" x2="235.93" y2="630.95" fill="none" stroke="#222221" stroke-linejoin="bevel" stroke-width="3"/><line x1="370.58" y1="491" x2="370.58" y2="630.95" fill="none" stroke="#222221" stroke-linejoin="bevel" stroke-width="3"/><path d="M276.87,455.94s-7.09,16-36.23,7.91-47.45-6.26-69.1,62.67c0,0,11,32.85,63.45,18.53" fill="none" stroke="#222221" stroke-linejoin="bevel" stroke-width="3"/><path d="M265.64,465.21c-2.15,4.29,10.5,62.64,44.84,60.49s34.29-66.55,34.29-66.55" fill="none" stroke="#222221" stroke-linejoin="bevel" stroke-width="3"/><path d="M331.22,449.7s7.18,15.81,35.69,7.75,49.35-2.48,70.53,66.45c0,0-15.16,33.15-66.47,18.83" fill="none" stroke="#222221" stroke-linejoin="bevel" stroke-width="3"/><path d="M242.11,482c1.43.35,3.21,31.72,13.91,38.49" fill="none" stroke="#222221" stroke-linejoin="bevel" stroke-width="3"/><path d="M242.47,521.17c0,1.42,7.84,24.23,19.25,33.14" fill="none" stroke="#222221" stroke-linejoin="bevel" stroke-width="3"/><path d="M364,477.68s-8.56,42.77-18.9,49.55" fill="none" stroke="#222221" stroke-linejoin="bevel" stroke-width="3"/><path d="M362.59,519.38s-.71,22.46-15.68,29.94" fill="none" stroke="#222221" stroke-linejoin="bevel" stroke-width="3"/><ellipse cx="302.15" cy="424.57" rx="1.86" ry="5.34" fill="#222221"/><ellipse cx="331.22" cy="424.57" rx="1.86" ry="5.34" fill="#222221"/><circle cx="265.41" cy="429.92" r="12.92" fill="#f6e6f1"/><path d="M268.63,442.83S248.8,444.19,254,423.92" fill="none" stroke="#222221" stroke-linejoin="bevel" stroke-width="3"/><path d="M318.39,461.86s-17.64,9.43-22-12.16Z" fill="#222221"/><polygon points="553.58 191.38 553.58 297.25 336.37 297.25 303.36 319.7 310.84 297.25 302.29 297.25 302.29 191.38 553.58 191.38" fill="#fff"/><polygon points="199.34 415.26 193.04 415.26 198.56 431.81 174.23 415.26 14.2 415.26 14.2 337.27 199.34 337.27 199.34 415.26" fill="#fff"/><rect x="29.08" y="748.57" width="1109.2" height="21.94" fill="#222221"/><path d="M230.59,487.57V541.4s-34.93,8.19-48.83-12.12c0,0,3.56-14.52,20.67-16S230.59,487.57,230.59,487.57Z" fill="#ad3e7e"/><path d="M367.1,531.77l1.07,95.76h-124S223,596.64,275.08,589.87s75.27-18.23,77.05-28.9S367.1,531.77,367.1,531.77Z" fill="#ad3e7e"/><path d="M377.08,482l16,49.81s37.79-12,36.36-6-45.27,30.78-49.9,8.59S377.08,482,377.08,482Z" fill="#ad3e7e"/><path d="M249.06,470.82s7.25,3.19,11.81,0c0,0,6.79,62,51.7,59.17C312.57,530,268.25,550.31,249.06,470.82Z" fill="#ad3e7e"/><path d="M271,470.11s4.1,43.52,37.79,45.19c0,0-30.49,7.38-40.2-43.59Z" fill="#ad3e7e"/><path d="M255.3,433.39s3.09,8.32,14.26,7.49l-.48-11S259.1,435.39,255.3,433.39Z" fill="#e9c1d9"/><path d="M279.18,425.44l-.85,27s13.59,22.82,22.95,22.81a17.74,17.74,0,0,0,14.11-7.13S279.78,465.48,279.18,425.44Z" fill="#e9c1d9"/><path d="M321.27,416.29s-2.14,15.7-.95,22.84,3.74,12.1,1.4,11.82-12.58-6.27-12.89-5.79,11-30.54,11-30.54Z" fill="#e9c1d9"/><path d="M321.3,408.85s-3.32,30.7.83,39-14.1-2.48-14.1-2.48" fill="none" stroke="#222221" stroke-linejoin="bevel" stroke-width="3"/><path d="M17.2,339.53s87.92,77,182.14,57.27v18.46H193l5.52,16.55-24.33-16.55H14.2v-78Z" fill="#ead3e4"/><line x1="178.07" y1="357.49" x2="38.36" y2="357.49" fill="none" stroke="#222221" stroke-linejoin="bevel" stroke-width="3"/><line x1="178.07" y1="365.59" x2="38.36" y2="365.59" fill="none" stroke="#222221" stroke-linejoin="bevel" stroke-width="3"/><line x1="178.07" y1="373.7" x2="38.36" y2="373.7" fill="none" stroke="#222221" stroke-linejoin="bevel" stroke-width="3"/><line x1="178.07" y1="381.07" x2="38.36" y2="381.07" fill="none" stroke="#222221" stroke-linejoin="bevel" stroke-width="3"/><line x1="178.07" y1="387.7" x2="38.36" y2="387.7" fill="none" stroke="#222221" stroke-linejoin="bevel" stroke-width="3"/><polygon points="199.34 415.26 193.04 415.26 198.56 431.81 174.23 415.26 14.2 415.26 14.2 337.27 199.34 337.27 199.34 415.26" fill="none" stroke="#222221" stroke-linejoin="bevel" stroke-width="3"/><path d="M346,193.87s60.35,99.47,193.3,103.38H336.37l-33,22.45,7.48-22.45h-8.55V191.38h43Z" fill="#ead3e4"/><line x1="331.16" y1="218.83" x2="520.78" y2="218.83" fill="#fff" stroke="#222221" stroke-linejoin="bevel" stroke-width="3"/><line x1="331.16" y1="229.83" x2="520.78" y2="229.83" fill="none" stroke="#222221" stroke-linejoin="bevel" stroke-width="3"/><line x1="331.16" y1="240.83" x2="520.78" y2="240.83" fill="none" stroke="#222221" stroke-linejoin="bevel" stroke-width="3"/><line x1="331.16" y1="250.83" x2="520.78" y2="250.83" fill="none" stroke="#222221" stroke-linejoin="bevel" stroke-width="3"/><line x1="331.16" y1="259.83" x2="520.78" y2="259.83" fill="none" stroke="#222221" stroke-linejoin="bevel" stroke-width="3"/><polygon points="553.58 191.38 553.58 297.25 336.37 297.25 303.36 319.7 310.84 297.25 302.29 297.25 302.29 191.38 553.58 191.38" fill="none" stroke="#222221" stroke-linejoin="bevel" stroke-width="3"/><polygon points="275.48 787.87 240.15 792.41 263.38 977.55 288.1 972.56 275.48 787.87" fill="#3f3f3f"/><polygon points="341.56 775.3 453.24 787.87 449.92 806.23 338.79 780.12 341.56 775.3" fill="#3f3f3f"/><path d="M386.67,545.85s46.85,73.4,70.61,75.3,88.29-74.28,88.29-74.28,31.58-5.86,32.53-9.63-26-3-26-3,31-19.56,25.31-21-27.8,8.86-27.8,8.86,26.26-20.2,20.32-22.1-31.73,16-31.73,16,19.25-22.24,15-25.09-33.86,25.8-33.86,25.8,5.19-20.31.91-21.5-11.25,18-11.25,18l1.12,17.11-48.75,48.44-32.17-44.49S410.94,551.23,386.67,545.85Z" fill="#f6e6f1" stroke="#222221" stroke-linejoin="bevel" stroke-width="3"/><path d="M461.33,578.84s4.15,9.61,1.65,17.45" fill="#f6e6f1" stroke="#222221" stroke-linejoin="bevel" stroke-width="3"/><path d="M528,521.2s8.95,15.33-10.49,18.61" fill="none" stroke="#222221" stroke-linejoin="bevel" stroke-width="3"/><path d="M540.33,534.35s-6.59-4.9-12.2,0" fill="none" stroke="#222221" stroke-linejoin="bevel" stroke-width="3"/><path d="M392.59,550.49s22.28,2.13,28.69-5.17l41.28,63.26,75.81-59.26s-60.24,64.79-78.24,68.35S392.59,550.49,392.59,550.49Z" fill="#e9c1d9"/><path d="M464.59,578.84a18.44,18.44,0,0,1,.89,16.56s11.94-14.44,7.84-22.1Z" fill="#e9c1d9"/><path d="M520.37,542.11s10.43-3.16,13-6.42,10,3.21,10,3.21S526.79,546.39,520.37,542.11Z" fill="#e9c1d9"/><path d="M549.24,539.81l25-2.16s-22.27,6.24-26.55,6.6S549.24,539.81,549.24,539.81Z" fill="#e9c1d9"/><path d="M545.32,531.24s27.8-16,27.62-14.79-26.28,18.3-26.86,18.33S542.48,532.87,545.32,531.24Z" fill="#e9c1d9"/><path d="M538.37,522.86l28.52-19.78S542.65,528.56,538.37,522.86Z" fill="#e9c1d9"/><path d="M530,517.69l19.56-23S535.25,520.37,530,517.69Z" fill="#e9c1d9"/><path d="M74.67,636.44,44.57,742.65l1082.37-1.07-27-77.7S231.13,736.59,74.67,636.44Z" fill="#e9c1d9"/><path d="M162.39,774.37l31.6,2.15s-24.47,21.15-40.63,15C153.36,791.5,149.8,788.85,162.39,774.37Z" fill="#e9c1d9"/><path d="M266.47,985.64c-.71.47,8.33,0,8.33,0l9.73,25.66s-6.46,7.13-9,3.56S266.47,985.64,266.47,985.64Z" fill="#e9c1d9"/><path d="M263.38,1100.41s28.29-65.83,24.72-68.91-6-6.66-2.38-8.08,5.58-2.4,5.58-2.4l7,15.23S271.69,1102.58,263.38,1100.41Z" fill="#e9c1d9"/><polygon points="37.8 753.95 37.8 765.83 1132.04 764.88 1129.93 755.97 37.8 753.95" fill="#3f3f3f"/><rect x="43.53" y="774.37" width="2.43" height="284.09" fill="#3f3f3f"/><rect x="91.34" y="772.01" width="2.58" height="231.68" fill="#3f3f3f"/><polygon points="218.2 855.24 222.48 871.99 222.57 924.56 218.2 924.56 218.2 855.24" fill="#e9c1d9"/><polygon points="238.31 952.01 241.99 966.86 241.99 977.55 238.31 977.55 238.31 952.01" fill="#e9c1d9"/><polygon points="314.35 771.98 326.47 786.8 314.35 787.87 314.35 771.98" fill="#e9c1d9"/><polygon points="384.93 797.14 388.13 798.21 388.13 860.58 384.93 863.97 384.93 797.14" fill="#e9c1d9"/><polygon points="404.35 801.24 407.92 802.66 407.92 860.23 404.35 863.08 404.35 801.24" fill="#e9c1d9"/><path d="M807.17,545.78s-46.85,73.4-70.61,75.31-88.3-74.29-88.3-74.29-31.57-5.86-32.52-9.63,26-3,26-3-31-19.56-25.3-21,27.8,8.86,27.8,8.86S618,501.88,623.92,500s31.72,16,31.72,16-19.24-22.24-15-25.09,33.87,25.8,33.87,25.8-5.2-20.31-.92-21.5,11.25,18,11.25,18l-1.11,17.11,48.74,48.45,32.18-44.49S782.89,551.16,807.17,545.78Z" fill="#f6e6f1" stroke="#222221" stroke-linejoin="bevel" stroke-width="3"/><path d="M665.86,521.14s-9,15.32,10.49,18.6" fill="none" stroke="#222221" stroke-linejoin="bevel" stroke-width="3"/><path d="M653.51,534.29s6.58-4.91,12.2,0" fill="none" stroke="#222221" stroke-linejoin="bevel" stroke-width="3"/><path d="M957.25,545.92s.08-18.84,1.6-12.12c1.45,6.41,38.32,26,62.79-5.4,0,0-15.92-64-40.15-66.36a34.35,34.35,0,0,0-19.25.47c-10.45,3.33-35.4,7.61-45.14-5.7,0,0-15.45,19.25-25,21.39,0,0-15,.23-28.27-27.8,0,0-9.37,14.54-19.11,14.07s-21.7-9.9-34.29-3.49-17.71,20.45-50.9,76.38c0,0,12.24,18.29,63.9,5.47L823.26,629l134.65,1.87Z" fill="#cc4f92"/><path d="M936.57,407.22s-3.2,32.08-22.27,51.68c0,0-12.3,17.64-24.24,19.43,0,0-11.58-4.82-17.11-13.37s-12.83-20.5-12.83-20.5-7.17-17.95-8.91-23.34C848.58,413,850,387.54,850,387.54s15-38.07,24.6-36.83C937.82,358.91,940,395.28,936.57,407.22Z" fill="#f6e6f1"/><path d="M916.79,456.58l3.57,4.64s4.27,8.91-8.2,33.32c0,0-12.12,20.68-28.34,18.54S864,497.75,864,497.75s-5.7-15.15-6.24-18.71-2.49-16.64-2.49-16.64,1.34,3.45,2.83-2.95c.91-3.87,4.47-9.82,4.47-9.82s14.8,26.2,27.45,28.7C890.06,478.33,902.18,477.43,916.79,456.58Z" fill="#f6e6f1"/><path d="M916.79,456.58l2.26,2.5s-18.32,25.39-30.18,24.83c-8.2-.39-25.79-20.3-28.28-31.84l2.62-1.19s14.73,24.95,25.9,26.73c0,0,7.72,3.45,22.69-15.68Z" fill="#e9c1d9"/><path d="M848.58,403.89c0,29.52,28.21,74.08,41.49,74.08,15.76,0,46.46-43.08,46.46-72.59s-17-51.84-44.81-51.84S848.58,374.38,848.58,403.89Z" fill="none" stroke="#222221" stroke-linejoin="bevel" stroke-width="3"/><path d="M889.32,410.77s15.76-10.79,27.38.83" fill="none" stroke="#222221" stroke-linejoin="bevel" stroke-width="3"/><path d="M852.66,408.87c14.1-6.64,19.91,2.49,19.91,2.49" fill="none" stroke="#222221" stroke-linejoin="bevel" stroke-width="3"/><line x1="957.91" y1="493.04" x2="957.91" y2="630.88" fill="none" stroke="#222221" stroke-linejoin="bevel" stroke-width="3"/><line x1="823.26" y1="490.93" x2="823.26" y2="630.88" fill="none" stroke="#222221" stroke-linejoin="bevel" stroke-width="3"/><path d="M862.61,449.63s-1.23,21.06-29.74,13-27.17-3.33-62.73,57.75l-28.55,45.83L694.1,534.29,658,568.16s44.63,66,118,54.61l53.77-88.48" fill="#ca4f92" stroke="#222221" stroke-linejoin="bevel" stroke-width="3"/><ellipse cx="891.68" cy="424.5" rx="1.86" ry="5.34" fill="#222221"/><ellipse cx="862.61" cy="424.5" rx="1.86" ry="5.34" fill="#222221"/><circle cx="928.43" cy="429.85" r="12.92" fill="#f6e6f1"/><path d="M925.2,442.76s19.84,1.37,14.67-18.91" fill="none" stroke="#222221" stroke-linejoin="bevel" stroke-width="3"/><polygon points="829.35 704.13 881.1 704.13 887.86 593.63 822.75 593.63 829.35 704.13" fill="#fff" stroke="#222221" stroke-linejoin="bevel" stroke-width="3"/><rect x="823.09" y="637.53" width="66.08" height="30.89" stroke-width="3" fill="#c95394" stroke="#020201" stroke-linejoin="bevel" transform="translate(1712.27 1305.94) rotate(-180)"/><path d="M1015.59,538l15.29,110s3.29,19.33-15.17,22.52-108.08,3.71-108.08,3.71S870,688.59,855.56,686.79s9.91-11.06,14.49-11.22c0,0-27.46,4.37-28.41-.9-1-5.43,29.48-9.79,29.48-9.79s-32.91,1.68-33-2.55c-.12-5.9,31.8-8.86,33.13-9.43s-29.47,1.76-30.34-5.51c-.44-3.67,45.6-4.09,43-7.18s-17.35-13.76-8.61-14.51,29.8,17,29.8,17L990.59,637,971.44,548.6S996.5,553.77,1015.59,538Z" fill="#f6e6f1" stroke="#222221" stroke-linejoin="bevel" stroke-width="3"/><polygon points="815.41 600.57 894.54 600.57 889.82 587.5 821.11 587.5 815.41 600.57" fill="#c95394" stroke="#020201" stroke-linejoin="bevel" stroke-width="3"/><path d="M917.29,455.25s10.22,16.59,39.36,8.54,47.45-6.27,69.1,62.66c0,0,35.84,143.87,5.43,153.85S919,684.57,919,684.57l-6.56-47,69-10L957.74,525.2" fill="#cc4f92" stroke="#020201" stroke-linejoin="bevel" stroke-width="3"/><path d="M849.2,400.72C849,388.47,862.31,364.2,864.82,375c4,17.35,28.65,16.75,47.93,5.34,12-7.06,15.24,15,16,32.85.18,4.22.22,8.21.21,11.51-.57.64-1.18,1.31-1.82,2-8,8.57-21.34,19.62-39.63,24.55-26.44,7.13-35.5-24.43-35.5-24.43s7.31,60.29,24,69,49.48-47.91,49.48-47.91l7.65-23.26,3.09-2.8a193.55,193.55,0,0,0,2-28.32c1.3-18.45-4.46-28.85-14.66-34.71A25.2,25.2,0,1,0,897.45,352c-6.84-.59-14.23-.74-21.93-.77C829.76,351,849.36,413,849.2,400.72Z" fill="#cc4f92" stroke="#020201" stroke-linejoin="bevel" stroke-width="3"/><path d="M953.29,527.16l-3.14,96.94h-57.6S901.94,579.48,953.29,527.16Z" fill="#af3b7e"/><polygon points="823.26 532.11 809.76 526.32 772.22 583.62 760.32 617.37 770.32 617.37 823.26 532.11" fill="#af3b7e"/><path d="M926.05,466.26s4.14,42.56-19.48,48.26c0,0,93.37-15.31,73.33-34.23s-20.13-2.84-35.25-5.69S926.05,466.26,926.05,466.26Z" fill="#af3b7e"/><path d="M848.58,470.24a47.06,47.06,0,0,0,12,36.39s-53.2-18.59-49.4-29C811.19,477.61,833.29,490.08,848.58,470.24Z" fill="#af3b7e"/><path d="M973.73,483.92s58.45,125.41,25.66,153.43c0,0-72.33,3.3-74.19,13.76s3.23,25.19,3.23,25.19,98.28,4.27,102.68-5.71,7.25-38,4.87-55.6-31.48-141.9-49.9-144.75-34.33-2.45-48.53,7.37C928.43,483.92,963.27,490,973.73,483.92Z" fill="#af3b7e"/><path d="M886.1,590c.11,0,.29.34.51.82.92,1.94,2.56,6.67,2.56,6.67h-64l10.16-6.6Z" fill="#af3b7e"/><path d="M911.41,648.08H902.5s-16.93-16.93-17.29-14.44,11.66,12.12,7.34,12.12-25-.71-23.38,1.43,16.75,7.48,15.33,7.48-31.19,2.68-24.42,5.35,22.46,3.74,22.46,3.74-2.32,2.14-2.85,2.14-26.52,3.92-22.53,6.06,25.2,0,25.2,0l-1.6,2.67s-21.57,4.28-16.4,6.6,39.21-10.52,39.21-10.52l11.22.36Z" fill="#e9c1d9"/><path d="M920.32,459.52c1.79,3.59-7.45,55.44-36.1,53.65s-28.09-52-28.09-52" fill="none" stroke="#222221" stroke-linejoin="bevel" stroke-width="3"/><rect x="865.25" y="454.55" width="30.86" height="15.68" rx="7.84" transform="translate(1761.35 924.79) rotate(-180)" fill="#f6e6f1"/><path d="M887.28,461.39s-6.64,8.85-15.2,2.43" fill="none" stroke="#222221" stroke-linejoin="bevel" stroke-width="3"/><path d="M930.3,427.8,916.7,441l-9.21,6.59s-4.72,25.49-16.88,25.67l-23.93,1.07s4.26,23.18,13,18.72S919.43,463.27,930.3,427.8Z" fill="#af3b7e"/><path d="M934.58,420.32l-2.68,1.6s2.14-40.1-8.91-46.16a9.73,9.73,0,0,0-10.59,0c-5.62,3.57-50.54,14.26-41.8-5.7s9.48-16.79,25.5-16.33c0,0,6.22,1.54,4.26-4.17s-13.55-38,20.67-35.64c0,0,25.12,10.52,11.94,27.62s-20,16.58-14.43,19.07,21.56,8.73,16.12,58.55" fill="#af3b7e"/><path d="M882.72,604.06v18.53s-16.64-2.13-14,3.33l2.61,5.47-33.19,1-10.3-28.28Z" fill="#f6e6f1"/><path d="M877.37,689.48c.9-.82,0,11.53,0,11.53L836,699.23l7.84-9.75S868.43,697.57,877.37,689.48Z" fill="#f6e6f1"/><path d="M917.29,463.78s-25.72,49.92-45.21,31.74c0,0,3.88,23.47,17.24,11.11S917.29,463.78,917.29,463.78Z" fill="#e9c1d9"/><path d="M933.92,427.8l-3.62,11.59s5.89-.84,7.25-8S933.92,427.8,933.92,427.8Z" fill="#e9c1d9"/><path d="M874.18,404l.11.46,7,31.51s5.9,0,4.67,3.45c0,0-13.57,7-13.39,4.87a26.11,26.11,0,0,1,1.47-5.47S876.47,413,874.18,404Z" fill="#e9c1d9"/><path d="M874,402.13s3.32,30.7-.83,39,14.11-2.48,14.11-2.48" fill="none" stroke="#222221" stroke-linejoin="bevel" stroke-width="3"/><path d="M927.63,424.32l-4.4,2.62s-.47-44.7-9.5-40.31-47.1,17.35-51.12-4c0,0-8.05,5.92-11,19.54,0,0-1.11,4.32-1.55,1.84s2.77-19.24,10.71-27.44c0,0,2.12-3.44,3.72,1.79s11.08,14.73,24.35,12a141.3,141.3,0,0,0,25.86-8.44s5.22-2.61,7.6,4.52S927.63,424.32,927.63,424.32Z" fill="#e9c1d9"/><path d="M732.06,563.19l-37.93-22.55s-26.46,23.26-25.75,22.55S732.06,563.19,732.06,563.19Z" fill="#af3b7e"/><path d="M663.27,559.15l15.21-14.26s-13.31-3.33-15.21-6.77-12,0-12,0-24.71-2.5-22.22.12,23.41,7.13,23.41,7.13Z" fill="#e9c1d9"/><path d="M649.43,530.44s-24.95-15.13-24.24-12.64,24.24,16.49,24.24,16.49Z" fill="#e9c1d9"/><path d="M657.27,521.14s-27.11-20.8-26.66-16.7,24,21.47,24,21.47Z" fill="#e9c1d9"/><path d="M670.08,518.34s-22.43-24.24-23-20.85,15.51,22.45,15.51,22.45Z" fill="#e9c1d9"/><path d="M682,515.84s-5.32-15-5.69-11.94,1.06,11.94,1.06,11.94l1.07,8.56,2.49,3Z" fill="#e9c1d9"/><polygon points="970.84 875.43 967.75 884.93 967.75 940.06 969.29 940.06 970.84 875.43" fill="#f6e6f1"/><polygon points="354.35 724.06 302.6 724.06 295.84 613.56 360.94 613.56 354.35 724.06" fill="#fff" stroke="#222221" stroke-linejoin="bevel" stroke-width="3"/><rect x="294.53" y="657.46" width="66.08" height="30.89" fill="#c95394" stroke="#020201" stroke-linejoin="bevel" stroke-width="3"/><polygon points="368.29 620.5 289.16 620.5 293.88 607.43 362.59 607.43 368.29 620.5" fill="#c95394" stroke="#020201" stroke-linejoin="bevel" stroke-width="3"/><path d="M297.6,609.91c-.11,0-.29.34-.51.82-.93,1.94-2.56,6.67-2.56,6.67h64l-10.16-6.6Z" fill="#af3b7e"/><path d="M301,624v18.53s16.64-2.13,14,3.33l-2.61,5.47,33.19.95L355.87,624Z" fill="#f6e6f1"/><path d="M306.33,709.41c-.9-.82,0,11.53,0,11.53l41.35-1.78-7.85-9.75S315.27,717.5,306.33,709.41Z" fill="#f6e6f1"/><path d="M177.84,537.24l-25.28,99.44s-7.1,18.27,10.33,25.11S268,687.18,268,687.18,302,708.85,316.49,710s-7.49-12.83-11.94-13.9c0,0,26,9.8,28,4.83s-26.91-15.52-26.91-15.52,31.9,8.27,32.84,4.15c1.31-5.76-29.37-15.08-30.56-15.92s28.52,7.67,30.84.72c1.17-3.51-43.84-13.19-40.64-15.69s19.76-10,11.35-12.47-32.61,10.69-32.61,10.69l-82.64-22.81L220.35,548S201.36,552.92,177.84,537.24Z" fill="#f6e6f1" stroke="#222221" stroke-linejoin="bevel" stroke-width="3"/><path d="M316.37,679.93c-1.11-.35-2.28-.7-3.47-1l-15.26-9.3L272,671.5,183.1,641.31l26.38-87c-12.36,4.49-30.18-8-30.18-8s-19,74.09-23.52,93.1,13.3,20.67,13.3,20.67l101.23,22.57s40.83,25.31,43.57,23.65c2.48-1.51-14.14-12.91-17.22-15v-.16c3.32,1.16,22.63,7.84,24.69,7.08S306.42,688.17,297,683.77l.14-3.07c6.16,1.5,34.26,8.31,35.75,7.79C334.55,687.89,325.16,682.66,316.37,679.93Z" fill="#e9c1d9"/><polygon points="829.96 411.37 823.66 411.37 829.18 427.92 804.85 411.37 644.82 411.37 644.82 333.38 829.96 333.38 829.96 411.37" fill="#fff"/><path d="M647.83,335.64s87.91,77,182.13,57.27v18.46h-6.3l5.52,16.55-24.33-16.55h-160v-78Z" fill="#ead3e4"/><line x1="808.69" y1="353.6" x2="668.99" y2="353.6" fill="none" stroke="#222221" stroke-linejoin="bevel" stroke-width="3"/><line x1="808.69" y1="361.7" x2="668.99" y2="361.7" fill="none" stroke="#222221" stroke-linejoin="bevel" stroke-width="3"/><line x1="808.69" y1="369.81" x2="668.99" y2="369.81" fill="none" stroke="#222221" stroke-linejoin="bevel" stroke-width="3"/><line x1="808.69" y1="377.17" x2="668.99" y2="377.17" fill="none" stroke="#222221" stroke-linejoin="bevel" stroke-width="3"/><line x1="808.69" y1="383.8" x2="668.99" y2="383.8" fill="none" stroke="#222221" stroke-linejoin="bevel" stroke-width="3"/><polygon points="829.96 411.37 823.66 411.37 829.18 427.92 804.85 411.37 644.82 411.37 644.82 333.38 829.96 333.38 829.96 411.37" fill="none" stroke="#222221" stroke-linejoin="bevel" stroke-width="3"/><circle cx="166.23" cy="257.28" r="29.4" fill="#fff" stroke="#222221" stroke-linejoin="bevel" stroke-width="3"/><polygon points="166.23 149.73 102.55 263.92 229.91 263.92 166.23 149.73" fill="#222221"/><path d="M166.23,148.47c-2.7,1.35-37.07,103.52-4.08,114.19h-59.6Z" fill="#cc4f92" stroke="#020201" stroke-linejoin="bevel" stroke-width="3"/><line x1="166.23" y1="18.81" x2="166.23" y2="168.51" fill="#fff" stroke="#222221" stroke-linejoin="bevel" stroke-width="3"/><path d="M170.34,166.37l52,92.95-52-2S155,190.25,170.34,166.37Z" fill="#2d2d2d"/><path d="M113.31,258.06H139s-5-39.49,2.5-52.5C141.47,205.56,118.66,240.5,113.31,258.06Z" fill="#d069a0"/><path d="M143.25,266.89H190.3l-34.93,15.44S142.54,275.2,143.25,266.89Z" fill="#ecd6e7"/><circle cx="663.8" cy="270.91" r="29.4" fill="#fff" stroke="#222221" stroke-linejoin="bevel" stroke-width="3"/><polygon points="663.8 163.36 600.12 277.55 727.48 277.55 663.8 163.36" fill="#222221"/><path d="M663.8,162.1c-2.7,1.35-37.07,103.51-4.08,114.19h-59.6Z" fill="#cc4f92" stroke="#020201" stroke-linejoin="bevel" stroke-width="3"/><line x1="663.8" y1="32.43" x2="663.8" y2="182.14" fill="#fff" stroke="#222221" stroke-linejoin="bevel" stroke-width="3"/><path d="M667.91,180l52,92.94-52-2S652.58,203.88,667.91,180Z" fill="#2d2d2d"/><path d="M610.88,271.68h25.66s-5-39.48,2.5-52.49C639,219.19,616.23,254.13,610.88,271.68Z" fill="#d069a0"/><path d="M640.82,280.51h47L652.94,296S640.11,288.83,640.82,280.51Z" fill="#ecd6e7"/><circle cx="996.06" cy="273.26" r="29.4" fill="#fff" stroke="#222221" stroke-linejoin="bevel" stroke-width="3"/><polygon points="996.06 165.71 932.38 279.89 1059.74 279.89 996.06 165.71" fill="#222221"/><path d="M996.06,164.45C993.36,165.8,959,268,992,278.64h-59.6Z" fill="#cc4f92" stroke="#020201" stroke-linejoin="bevel" stroke-width="3"/><line x1="996.06" y1="34.79" x2="996.06" y2="184.49" fill="#fff" stroke="#222221" stroke-linejoin="bevel" stroke-width="3"/><path d="M1000.17,182.35l52,92.94-52-2S984.84,206.23,1000.17,182.35Z" fill="#2d2d2d"/><path d="M943.14,274H968.8s-5-39.48,2.5-52.49C971.3,221.54,948.49,256.48,943.14,274Z" fill="#d069a0"/><path d="M973.08,282.86h47L985.2,298.31S972.37,291.18,973.08,282.86Z" fill="#ecd6e7"/><path d="M364,409.94s-3.24-64.41-52.82-57.24c-2.74.39-5.2.8-7.42,1.23a14.54,14.54,0,0,0-3.92-.32c-1.18.08-2.33.17-3.46.29v0a39.37,39.37,0,1,0-48.13,38.38c-4.44,20.16,1.95,40.63,1.95,40.63a54.69,54.69,0,0,0,19.8-5.79L275.47,469l1-41.21.12-4.67c16.91-12,25.57-32,29.68-45.35,8.14,7.52,23.39,20.55,38.36,27.52l-3.45,40.44,12.57-37A31.44,31.44,0,0,0,364,409.94Z" fill="#222221"/><path d="M319.93,359s27.81-1.66,41.59,44.91C361.52,403.93,307.34,379.93,319.93,359Z" fill="#2d2d2d"/><polygon points="348.12 406.52 345.12 429.92 351.54 408.21 348.12 406.52" fill="#2d2d2d"/><path d="M245.08,322.43s32.68-10.7,47.47,27.8c0,0-15.47-1.74-28.37,15.36C264.18,365.59,262.43,324.33,245.08,322.43Z" fill="#2d2d2d"/><path d="M303.36,360.78s4.17,26.07-25,55C278.33,415.82,269.91,368.49,303.36,360.78Z" fill="#2d2d2d"/><polygon points="274.79 408.97 274.79 445.7 271.86 409.99 274.79 408.97" fill="#2d2d2d"/></g></svg>